<svg width="120" height="36" viewBox="0 0 120 36" fill="none" xmlns="http://www.w3.org/2000/svg">
  <path d="M74.5 24.8C67.3 30.1 57.3 33 48.7 33C36.6 33 25.8 28.7 17.6 21.5C17 21 17.5 20.3 18.2 20.7C27 25.4 37.8 28.2 48.9 28.2C56.2 28.2 64.2 26.7 71.5 23.6C72.7 23.1 73.7 24.4 72.5 25.2L74.5 24.8ZM77.4 21.5C76.5 20.3 71.5 20.9 69.3 21.2C68.6 21.3 68.5 20.7 69.1 20.3C73 17.5 79.6 18.3 80.4 19.3C81.2 20.3 80.2 27 76.6 30.1C76.1 30.5 75.6 30.3 75.8 29.7C76.7 27.4 78.3 22.7 77.4 21.5Z" fill="#FF9900"/>
  <path d="M69.7 4V6.2C69.7 6.6 69.4 6.9 69 7L58.8 7C58.4 7 58.1 7.3 58.1 7.7V13.3C58.1 13.7 58.4 14 58.8 14H67.8C68.2 14 68.5 14.3 68.5 14.7V16.9C68.5 17.3 68.2 17.6 67.8 17.6H58.8C58.4 17.6 58.1 17.9 58.1 18.3V24.2C58.1 24.6 58.4 24.9 58.8 24.9H69.3C69.7 24.9 70 25.2 70 25.6V27.8C70 28.2 69.7 28.5 69.3 28.5H54.3C53.9 28.5 53.6 28.2 53.6 27.8V3.8C53.6 3.4 53.9 3.1 54.3 3.1H69C69.4 3.1 69.7 3.4 69.7 3.8V4Z" fill="white"/>
  <path d="M34.2 28.8L29.8 28.9C29.4 28.9 29.1 28.6 29 28.2L20.5 4C20.4 3.5 20.7 3.1 21.2 3.1H26.1C26.5 3.1 26.8 3.4 26.9 3.8L33 23.7L39 3.8C39.1 3.4 39.4 3.1 39.8 3.1H44.3C44.8 3.1 45.1 3.5 45 4L36.6 28.2C36.5 28.6 36.2 28.9 35.8 28.9L34.2 28.8Z" fill="white"/>
  <path d="M97.2 29.3C90.5 29.3 86.5 24.1 86.5 16.6C86.5 9.2 90.8 3.7 97.1 3.7C103.9 3.7 107.8 8.9 107.8 16.3C107.8 23.8 103.7 29.3 97.2 29.3ZM97.2 8.3C93.8 8.3 91.8 11.9 91.8 16.5C91.8 21.2 93.7 24.7 97.1 24.7C100.4 24.7 102.5 21.1 102.5 16.6C102.5 11.9 100.5 8.3 97.2 8.3Z" fill="white"/>
  <path d="M115.8 28.8H111.3C110.9 28.8 110.6 28.5 110.6 28.1V4.2C110.6 3.8 110.9 3.5 111.3 3.5H115.6C116 3.5 116.3 3.7 116.3 4.1V7.2C117.9 4.5 120.3 3.2 123.4 3.2C126.6 3.2 129 4.5 130.4 7.2C132.1 4.5 135 3.2 138.1 3.2C140.5 3.2 143 4.1 144.6 6.3C146.4 8.6 146 11.7 146 14.6V28C146 28.4 145.7 28.7 145.3 28.7H140.8C140.4 28.7 140.1 28.4 140.1 28V16.3C140.1 14.7 140.2 11.3 138.8 9.9C137.7 8.8 136.1 8.4 134.8 8.4C133.1 8.4 131.3 9.4 130.4 11C129.5 12.6 129.6 15.3 129.6 17V28C129.6 28.4 129.3 28.7 128.9 28.7H124.4C124 28.7 123.7 28.4 123.7 28V16.3C123.7 12.6 124.1 8.3 119.7 8.3C115.2 8.3 115.4 12.5 115.4 16.3V28C115.4 28.4 115.1 28.7 114.7 28.7L115.8 28.8Z" fill="white"/>
</svg>
